PathFileType	4	(X/Y/Z)	c:\Git\powerlifing_model_clean\simulations\HC835B\Session1\HC835B_OGW_0002\marker_experimental.trc
DataRate	CameraRate	NumFrames	NumMarkers	Units	OrigDataRate	OrigDataStartFrame	OrigNumFrames
240.000000	240.000000	4	38	mm	240.000000	381	436
Frame#	Time	RPSI			LPSI			RASI			LASI			RTH1			RTH2			RTH3			RTH4			RSK1			RSK2			RSK3			RSK4			RCAL1			RCAL2			RCAL3			RST			RPT			RTN			RFMB			RSMB			RVMB			RFMH			RSMH			RVMH			RPM			LTH1			LTH2			LTH3			LTH4			LSK1			LSK2			LSK3			LSK4			LCAL1			LCAL2			LCAL3			LFMH			LVMH			
		X1	Y1	Z1	X2	Y2	Z2	X3	Y3	Z3	X4	Y4	Z4	X5	Y5	Z5	X6	Y6	Z6	X7	Y7	Z7	X8	Y8	Z8	X9	Y9	Z9	X10	Y10	Z10	X11	Y11	Z11	X12	Y12	Z12	X13	Y13	Z13	X14	Y14	Z14	X15	Y15	Z15	X16	Y16	Z16	X17	Y17	Z17	X18	Y18	Z18	X19	Y19	Z19	X20	Y20	Z20	X21	Y21	Z21	X22	Y22	Z22	X23	Y23	Z23	X24	Y24	Z24	X25	Y25	Z25	X26	Y26	Z26	X27	Y27	Z27	X28	Y28	Z28	X29	Y29	Z29	X30	Y30	Z30	X31	Y31	Z31	X32	Y32	Z32	X33	Y33	Z33	X34	Y34	Z34	X35	Y35	Z35	X36	Y36	Z36	X37	Y37	Z37	X38	Y38	Z38	

382	1.5875	434.8304138183595	1119.602783203125	81.39488220214845	541.7593994140626	1107.881958007813	87.05612945556642	349.5070800781251	1072.883178710938	281.1067504882813	595.7109985351564	1064.121826171875	301.2669372558594	299.4699096679688	812.5398559570315	143.9391632080078	309.9956970214844	786.562438964844	198.351791381836	314.8103332519532	729.1537475585939	146.630859375	335.9131164550782	705.5942382812501	196.4774932861329	384.4181518554689	317.4234008789063	-76.0633010864258	379.8775939941407	283.9227294921876	-24.61689186096192	390.264373779297	259.8309631347657	-79.03756713867189	399.6504821777345	228.1557769775391	-28.00601768493653	461.726776123047	122.8726501464844	-178.7369537353516	492.6216125488282	83.92339324951173	-172.7840728759766	428.9238281250001	86.59102630615236	-182.9271850585938	499.5398864746095	88.82208251953126	-102.4159469604492	399.0047912597657	90.0663299560547	-125.56298828125	480.3793334960939	100.8507461547852	-45.93402481079102	471.1084594726564	81.25435638427736	-17.01808547973633	422.1633605957032	104.4408416748047	-10.72004890441895	383.5860290527344	58.92675018310548	-87.4359817504883	465.625701904297	51.69580078125001	32.38118743896485	410.511444091797	63.02745437622072	42.38399124145509	358.0842285156251	44.33522415161134	-14.13800621032715	416.4305114746095	45.96715164184571	100.6354370117188	677.6752929687501	788.5779418945315	290.7861022949219	666.8349609375001	798.5660400390627	349.4688415527344	669.4872436523439	718.0807495117189	338.9570007324219	646.6000976562501	728.8820800781251	395.2065429687501	645.6621093750001	296.9161987304688	476.8958129882814	655.7047119140626	306.0903320312501	528.3383178710939	646.5981445312501	257.6149597167969	517.8297119140626	641.9674072265626	271.5219116210938	572.4001464843751	587.8853759765626	100.2412414550782	553.7831420898439	615.4900512695314	65.63486480712892	569.8890380859376	556.9172973632814	73.71978759765626	574.9963378906251	577.3928833007814	183.3144683837891	764.8088378906251	673.9517822265626	131.1295928955078	742.6809082031251	
383	1.591666666666667	435.1399841308595	1118.3818359375	88.49195098876955	542.1152954101564	1106.687866210938	94.21580505371095	349.6791992187501	1071.980712890625	288.1307067871094	595.3020629882814	1063.434326171875	308.5357360839844	299.5681762695313	811.7807617187502	150.0001525878907	309.9058837890626	785.586364746094	204.2885894775391	314.8162841796876	728.2565917968751	152.3956451416016	335.8562011718751	704.6375732421876	202.0649108886719	384.3275146484376	318.3392028808594	-73.23114013671876	379.6076049804688	284.5196533203126	-22.00889205932618	390.0147399902345	260.7607421875001	-76.77352142333986	399.419647216797	228.5167083740235	-26.32153892517091	461.3165588378907	124.6607055664063	-177.7536163330078	492.412322998047	85.88400268554689	-172.2216033935547	428.6184082031251	88.6671600341797	-182.196533203125	499.3548278808595	90.21345520019533	-101.8125228881836	398.8203125000001	91.17231750488283	-125.0268478393555	480.1321105957032	101.6938171386719	-45.22580718994141	470.8757934570314	81.74014282226564	-16.51462936401368	421.9825744628907	104.4442977905274	-10.2059211730957	383.3815002441407	59.84325790405275	-86.94750976562501	465.6087646484376	51.72772216796876	32.55281066894532	410.3916625976564	62.91224670410158	42.77039337158204	358.0089721679688	44.38214111328126	-14.06058216094971	416.3713684082032	45.84196472167969	100.6536102294922	677.8278198242189	787.305358886719	298.0474548339844	667.0576782226564	797.4229125976565	356.7492065429688	669.0446777343751	717.0123901367189	346.3227539062501	646.2656250000001	727.9570922851564	402.540252685547	644.4031372070314	295.1074218750001	483.9437866210939	654.5806274414064	304.7151794433594	535.3190307617189	645.2335205078126	256.2900695800782	525.2110595703126	640.8594970703126	270.5105590820313	579.6480712890626	585.6607666015626	98.72700500488284	562.9841308593751	612.4592895507814	63.65050506591798	579.8236083984376	554.1391601562501	73.22749328613283	584.8552856445314	576.6693725585939	185.76611328125	772.5008544921877	672.2984008789064	131.2965393066407	751.3426513671876	
384	1.595833333333333	435.4021301269532	1117.121337890625	95.70801544189455	542.4083862304689	1105.41552734375	101.3815002441407	349.8054199218751	1070.945068359375	295.2645568847657	594.8161010742189	1062.760009765625	315.7472839355469	299.6708984375001	811.0197753906252	156.1692199707032	309.7218933105469	784.6443481445315	210.5093231201172	314.7302551269532	727.4925537109376	158.4139862060547	335.5655212402344	703.4862670898439	208.0281066894532	384.2218017578126	319.4531860351563	-70.34181976318361	379.4407348632813	284.9155883789063	-19.39838027954102	389.6880798339845	261.8978271484376	-74.36179351806642	399.0061950683595	229.0177307128907	-24.16400527954102	460.9830017089845	126.7554092407227	-176.6983337402344	492.1611328125001	87.9427947998047	-171.6037750244141	428.2265625000001	90.48794555664064	-181.4740447998047	499.0909118652345	91.68467712402345	-101.1733856201172	398.4800720214845	92.53681945800783	-124.2574768066407	479.7746582031251	102.4748077392578	-44.50642776489259	470.6276245117189	82.2300262451172	-16.0013542175293	421.6597290039064	104.6948471069336	-9.472004890441896	383.1839294433594	60.58803939819337	-86.4961624145508	465.5683898925782	51.70487213134767	32.71084594726563	410.238250732422	62.58792877197267	43.07439804077149	357.9337158203126	44.39730072021485	-14.0252914428711	416.2950134277345	45.77558517456055	100.7140121459961	677.7462768554689	786.5328369140627	305.7268981933594	667.2044067382814	796.716003417969	364.4060668945313	668.4716186523439	716.2476806640626	354.0458984375001	645.6314697265626	727.4973144531251	410.1972961425782	643.0536499023439	293.4664611816407	490.4585266113282	653.4090576171876	303.1386413574219	541.8516235351564	643.8148803710939	254.6427612304688	531.7927856445314	639.8161621093751	269.0110778808594	586.2354736328126	583.4637451171876	96.82715606689456	570.7647705078126	609.1649780273439	61.14489364624025	588.3798217773439	551.4180908203126	72.29232788085939	593.0211791992189	576.2241210937501	187.5907592773438	778.8747558593752	670.6700439453126	130.5988464355469	758.8643188476564	
385	1.6	435.6430969238282	1116.04150390625	102.8936462402344	542.8225097656251	1104.325561523438	108.4034194946289	350.0079650878907	1069.93017578125	302.3515319824219	594.3293457031251	1062.0908203125	322.8974304199219	299.7696228027344	810.236999511719	162.5075988769532	309.6460266113282	783.7246093750002	216.8270111083985	314.7142944335938	726.6887817382814	164.5432891845703	335.2774047851563	702.5109863281251	214.1791992187501	383.9999084472657	320.5729064941407	-67.28847503662111	379.0188293457032	285.4826660156251	-16.82995796203614	389.4593505859376	262.8087463378907	-71.97068786621095	398.6387023925782	229.6225891113282	-22.14168357849121	460.5639038085939	128.7757873535157	-175.7133483886719	491.8470764160157	90.14591217041017	-170.9327392578125	428.0156555175782	92.69850158691408	-180.8422546386719	498.7395629882814	93.23821258544923	-100.4547958374024	398.1436157226564	94.05708312988283	-123.4944152832032	479.6613159179689	103.8222961425782	-43.75767898559571	470.3626098632814	82.73923492431642	-15.43178176879883	421.3026733398439	105.0669555664063	-8.616923332214357	382.9491882324219	61.45648574829103	-86.03993988037111	465.5205688476564	51.69194793701173	32.89297485351563	410.0644531250001	62.24699783325197	43.38574600219727	357.8584899902344	44.48167800903321	-13.88636207580567	416.2827148437501	45.67446899414063	100.752685546875	677.6278686523439	786.027770996094	313.6976623535157	667.1812133789064	796.3990478515627	372.4043579101563	668.0340576171876	715.9337158203126	362.1823120117188	644.8384399414064	727.3183593750001	418.1377563476564	641.4652709960939	291.8618774414063	496.5979309082032	652.1715087890626	301.2377929687501	547.9802856445314	642.2982177734376	252.8648376464844	537.8139038085939	638.7458496093751	267.0036926269532	592.3150024414064	581.2286987304689	95.17623138427736	574.5650634765626	606.5598144531251	58.94180297851564	595.1463012695314	548.8145141601564	71.13795471191408	600.1681518554689	575.3088989257814	187.9002990722657	784.186218261719	668.6633300781251	128.7465362548828	765.0858154296876	
